<svg width="89" height="89" viewBox="0 0 89 89" xmlns="http://www.w3.org/2000/svg" xmlns:sketch="http://www.bohemiancoding.com/sketch/ns"><title>fire</title><g sketch:type="MSLayerGroup" fill="none"><path d="M44.437 88.693l43.882-43.886-43.882-43.884-43.883 43.884 43.883 43.886" fill="#D4D4D4" sketch:type="MSShapeGroup"/><path d="M8.071 44.809l36.366 36.362 36.365-36.362-36.365-36.365-36.366 36.365zm36.366 39.19l-39.194-39.19 39.194-39.193 39.193 39.193-39.193 39.19z" fill="#fff" sketch:type="MSShapeGroup"/><path d="M43.203 20.133c-.415 1.25-.577 2.562-.454 3.875.117 1.261.443 2.696 1.492 3.518 1.082.852 2.924.805 3.385-.697.495-1.619-.801-2.855-1.001-4.342 3.229 1.078 3.544 4.899 3.491 7.802-.049 2.657-1.731 4.596-2.264 7.065-.404 1.865-.91 7.788 2.701 6.375 1.729-.677 1.214-2.919.856-4.234-.267-.98-.494-1.973-.79-2.944.131.432 1.58 1.05 1.944 1.386.665.617 1.125 1.366 1.348 2.245.121.478.231 1.001.258 1.498.076 1.268-.693 2.418-.59 3.687.087 1.082.644 2.466 1.522 3.14.904.692 1.627.254 1.77-.849.202-1.557-.302-3.181.581-4.601.756-1.217 2.209-2.021 3.652-1.959-.679.401-1.449 1.064-1.841 1.758-.633 1.123-.45 2.514-.366 3.743.096 1.454.186 2.909.27 4.366.182 3.168.574 6.426-.605 9.466-.752 1.941-2.139 3.617-3.765 4.877-.356.278-4.115 2.621-4.491 2.126l-.194-.251.506-1.023c1.639-2.206 3.492-4.343 3.366-7.265-.066-1.525-.497-3.091-1.7-4.094-.673-.558-1.567-1.067-2.433-1.216.095.227.285.456.455.674.873 2.189 1.357 4.084-.06 6.213-.775 1.168-2.7 2.288-3.761.823-1.113-1.539-.394-3.667-.113-5.356.753-4.474 2.559-9.844-.83-13.669-.854-.965-2.098-1.418-3.246-1.928 1.607 2.005 2.884 4.049 2.795 6.723-.061 1.827-1.987 5.856-4.393 4.098-1.585-1.157.047-3.492.544-4.803-2.469.93-3.567 3.352-3.67 5.855-.128 3.116 1.825 5.946 2.398 8.945.25 1.31.409 3.085-.295 4.277-.847 1.431-2.526 1.021-3.159-.358-.745-1.62.002-3.402.682-4.896-.587-.527-1.978 1.169-2.295 1.574-.591.759-.677 1.536-.806 2.464-1.328-.998-2.395-2.906-2.79-4.485-.607-2.415.475-4.816 1.102-7.107.697-2.539-.183-3.819-1.585-5.851-.7-1.016-1.044-1.799-1.053-3.003-.01-.884-.157-2.263.355-2.992l.012.249c.662 1.243 1.181 2.305 2.371 3.119.714.49 1.51.856 2.203 1.374.711.529 1 1.386 1.652 1.905 1.963-1.919.194-4.115-1.037-5.9-1.242-1.804-1.984-3.566-1.842-5.781.161-2.486 1.864-5.307 4.543-5.601-1.543 2.304-2.683 5.144-.896 7.674 1.694 2.396 4.455 1.348 4.603-1.421.301-5.623-4.435-12.784-.023-17.686.939-1.046 2.138-1.905 3.374-2.564-.329 1.429-1.422 2.591-1.883 3.982z" fill="#646464" sketch:type="MSShapeGroup"/></g></svg>