<?xml version="1.0" encoding="utf-8"?>
<!-- Generator: Adobe Illustrator 16.0.4, SVG Export Plug-In . SVG Version: 6.00 Build 0)  -->
<!DOCTYPE svg PUBLIC "-//W3C//DTD SVG 1.1//EN" "http://www.w3.org/Graphics/SVG/1.1/DTD/svg11.dtd">
<svg version="1.1" id="Layer_1" xmlns="http://www.w3.org/2000/svg" xmlns:xlink="http://www.w3.org/1999/xlink" x="0px" y="0px"
	 width="290.816px" height="117.399px" viewBox="0.302 0.591 290.816 117.399" enable-background="new 0.302 0.591 290.816 117.399"
	 xml:space="preserve">
<g>
	<path fill="#BC2713" d="M84.284,43.654l-15.793,2.567l2.547-15.5c-15.666-16.293-31.332-0.313-31.332-0.313l2.567,15.793
		l-15.5-2.547c-16.292,15.666-0.313,31.332-0.313,31.332l15.793-2.566l-2.547,15.5c15.666,16.292,31.332,0.312,31.332,0.312
		l-2.567-15.793l15.5,2.547C100.263,59.32,84.284,43.654,84.284,43.654z"/>
</g>
<g>
	<g>
		<path fill="#FFFFFF" d="M116.418,39.135v6.24h11.71v6.026h-11.71v11.754h-7.224v-30.26h19.917v6.24H116.418z"/>
		<path fill="#FFFFFF" d="M140.805,59.393c0,1.197-0.421,2.194-1.261,2.992c-0.841,0.798-1.846,1.196-3.014,1.196
			c-0.598,0-1.161-0.106-1.688-0.32c-0.527-0.213-0.99-0.506-1.389-0.876c-0.399-0.37-0.712-0.805-0.94-1.304
			c-0.229-0.498-0.342-1.047-0.342-1.646c0-0.569,0.113-1.111,0.342-1.624c0.228-0.513,0.541-0.961,0.94-1.347
			c0.399-0.384,0.862-0.69,1.389-0.919c0.527-0.228,1.09-0.342,1.688-0.342c1.168,0,2.173,0.399,3.014,1.197
			C140.384,57.199,140.805,58.196,140.805,59.393z"/>
		<path fill="#FFFFFF" d="M149.058,63.155v-30.26h7.351v30.26H149.058z"/>
		<path fill="#FFFFFF" d="M173.32,59.393c0,1.197-0.421,2.194-1.261,2.992c-0.841,0.798-1.846,1.196-3.013,1.196
			c-0.599,0-1.162-0.106-1.688-0.32c-0.527-0.213-0.99-0.506-1.39-0.876s-0.712-0.805-0.939-1.304
			c-0.229-0.498-0.343-1.047-0.343-1.646c0-0.569,0.114-1.111,0.343-1.624c0.228-0.513,0.54-0.961,0.939-1.347
			c0.399-0.384,0.862-0.69,1.39-0.919c0.526-0.228,1.09-0.342,1.688-0.342c1.167,0,2.172,0.399,3.013,1.197
			C172.899,57.199,173.32,58.196,173.32,59.393z"/>
		<path fill="#FFFFFF" d="M197.75,63.155l-6.57-12.011h-2.491v12.011h-7.137v-30.26h11.54c1.453,0,2.87,0.149,4.252,0.449
			c1.382,0.299,2.621,0.806,3.719,1.518c1.097,0.712,1.973,1.652,2.629,2.821c0.654,1.168,0.982,2.622,0.982,4.359
			c0,2.052-0.556,3.776-1.667,5.172c-1.111,1.396-2.649,2.394-4.615,2.992l7.906,12.951H197.75z M197.45,42.169
			c0-0.712-0.15-1.29-0.451-1.731c-0.3-0.441-0.687-0.783-1.159-1.025s-1.002-0.406-1.589-0.492
			c-0.588-0.085-1.152-0.128-1.696-0.128h-3.908v7.052h3.479c0.602,0,1.217-0.05,1.848-0.15c0.629-0.1,1.201-0.277,1.717-0.534
			c0.516-0.256,0.938-0.626,1.268-1.111C197.286,43.565,197.45,42.938,197.45,42.169z"/>
		<path fill="#FFFFFF" d="M220.757,59.393c0,1.197-0.421,2.194-1.261,2.992c-0.841,0.798-1.846,1.196-3.014,1.196
			c-0.598,0-1.161-0.106-1.688-0.32c-0.527-0.213-0.99-0.506-1.39-0.876s-0.712-0.805-0.939-1.304
			c-0.229-0.498-0.343-1.047-0.343-1.646c0-0.569,0.113-1.111,0.343-1.624c0.228-0.513,0.54-0.961,0.939-1.347
			c0.399-0.384,0.862-0.69,1.39-0.919c0.526-0.228,1.09-0.342,1.688-0.342c1.168,0,2.173,0.399,3.014,1.197
			C220.336,57.199,220.757,58.196,220.757,59.393z"/>
		<path fill="#FFFFFF" d="M228.988,63.155v-30.26h20.344v6.154H236.04v5.728h12.565v5.855H236.04v6.283h14.062v6.24H228.988z"/>
		<path fill="#FFFFFF" d="M266.33,59.393c0,1.197-0.421,2.194-1.261,2.992c-0.841,0.798-1.846,1.196-3.014,1.196
			c-0.599,0-1.161-0.106-1.688-0.32c-0.527-0.213-0.99-0.506-1.389-0.876c-0.399-0.37-0.713-0.805-0.94-1.304
			c-0.229-0.498-0.342-1.047-0.342-1.646c0-0.569,0.113-1.111,0.342-1.624c0.228-0.513,0.541-0.961,0.94-1.347
			c0.398-0.384,0.861-0.69,1.389-0.919c0.527-0.228,1.09-0.342,1.688-0.342c1.168,0,2.173,0.399,3.014,1.197
			C265.909,57.199,266.33,58.196,266.33,59.393z"/>
	</g>
</g>
<g opacity="0.5">
	<path fill="#FFFFFF" d="M272.084,117.99H19.337c-10.496,0-19.035-8.484-19.035-18.915v-79.57c0-10.429,8.539-18.914,19.035-18.914
		h252.747c10.496,0,19.034,8.485,19.034,18.914v79.57C291.118,109.506,282.58,117.99,272.084,117.99z M19.337,6.656
		c-7.13,0-12.93,5.764-12.93,12.849v79.57c0,7.085,5.8,12.849,12.93,12.849h252.747c7.129,0,12.931-5.764,12.931-12.849v-79.57
		c0-7.084-5.802-12.849-12.931-12.849H19.337z"/>
</g>
<g>
	<path fill="#FFFFFF" d="M114.437,90.38l-1.649-7.307h-1.257v7.307h-2.619V72.913h3.666c3.038,0,4.374,1.571,4.374,5.055
		c0,2.278-0.471,3.457-1.754,4.399l2.017,8.013H114.437z M111.53,75.349v5.29h0.837c1.545,0,1.964-0.786,1.964-2.646
		c0-1.047-0.183-1.78-0.524-2.173c-0.236-0.314-0.707-0.472-1.44-0.472H111.53z"/>
	<path fill="#FFFFFF" d="M123.157,90.38V72.913h7.123v2.436h-4.504v4.766h3.247v2.436h-3.247v5.395h4.504v2.436H123.157z"/>
	<path fill="#FFFFFF" d="M141.566,77.208c-0.184-1.571-0.55-2.121-1.519-2.121c-0.864,0-1.466,0.681-1.466,1.729
		c0,1.178,0.445,1.885,2.331,3.64c2.723,2.488,3.378,3.588,3.378,5.709c0,2.645-1.65,4.478-4.137,4.478
		c-2.541,0-4.269-1.859-4.347-4.714l2.488-0.444c0.078,1.807,0.681,2.724,1.859,2.724c0.969,0,1.597-0.733,1.597-1.912
		c0-1.283-0.708-2.095-2.723-3.954c-2.2-2.068-2.986-3.457-2.986-5.368c0-2.593,1.624-4.321,4.112-4.321
		c2.33,0,3.64,1.389,3.954,4.189L141.566,77.208z"/>
	<path fill="#FFFFFF" d="M157.697,72.913v2.436h-2.828V90.38h-2.619V75.349h-2.775v-2.436H157.697z"/>
	<path fill="#FFFFFF" d="M171.394,84.698c0,2.619-0.21,3.535-1.048,4.557c-0.76,0.917-1.755,1.388-3.037,1.388
		c-1.284,0-2.305-0.471-3.064-1.388c-0.838-1.021-1.047-1.964-1.047-4.557v-6.102c0-2.593,0.209-3.535,1.047-4.556
		c0.76-0.917,1.78-1.389,3.064-1.389c1.282,0,2.304,0.472,3.037,1.389c0.838,1.021,1.048,1.963,1.048,4.556V84.698z M165.815,84.409
		c0,3.038,0.209,3.798,1.493,3.798c1.388,0,1.466-1.048,1.466-3.798v-5.525c0-3.037-0.21-3.797-1.466-3.797
		c-1.44,0-1.493,1.048-1.493,3.797V84.409z"/>
	<path fill="#FFFFFF" d="M183.125,90.38l-1.649-7.307h-1.257v7.307H177.6V72.913h3.666c3.038,0,4.374,1.571,4.374,5.055
		c0,2.278-0.472,3.457-1.755,4.399l2.017,8.013H183.125z M180.219,75.349v5.29h0.837c1.546,0,1.965-0.786,1.965-2.646
		c0-1.047-0.184-1.78-0.524-2.173c-0.235-0.314-0.707-0.472-1.44-0.472H180.219z"/>
	<path fill="#FFFFFF" d="M200.906,90.38h-2.697l-0.603-3.85h-2.802l-0.602,3.85h-2.593l2.854-17.467h3.404L200.906,90.38z
		 M196.166,77.13l-0.994,6.966h2.042L196.166,77.13z"/>
	<path fill="#FFFFFF" d="M213.241,72.913v2.436h-2.829V90.38h-2.618V75.349h-2.775v-2.436H213.241z"/>
	<path fill="#FFFFFF" d="M218.924,90.38V72.913h2.618V90.38H218.924z"/>
	<path fill="#FFFFFF" d="M235.919,84.698c0,2.619-0.21,3.535-1.048,4.557c-0.759,0.917-1.754,1.388-3.037,1.388
		s-2.305-0.471-3.064-1.388c-0.838-1.021-1.047-1.964-1.047-4.557v-6.102c0-2.593,0.209-3.535,1.047-4.556
		c0.76-0.917,1.781-1.389,3.064-1.389s2.304,0.472,3.037,1.389c0.838,1.021,1.048,1.963,1.048,4.556V84.698z M230.342,84.409
		c0,3.038,0.209,3.798,1.492,3.798c1.388,0,1.467-1.048,1.467-3.798v-5.525c0-3.037-0.21-3.797-1.467-3.797
		c-1.44,0-1.492,1.048-1.492,3.797V84.409z"/>
	<path fill="#FFFFFF" d="M248.357,72.913h2.436V90.38h-2.436l-3.797-10.789V90.38h-2.436V72.913h2.646l3.587,10.37V72.913z"/>
</g>
</svg>
