<svg xmlns:sketch="http://www.bohemiancoding.com/sketch/ns" xmlns="http://www.w3.org/2000/svg" width="852" height="161" viewBox="0 0 852 161"><title>Imported Layers</title><desc>Created with Sketch.</desc><g sketch:type="MSLayerGroup" fill="#fff"><path sketch:type="MSShapeGroup" d="M.522.131h850.954v160.738h-850.954v-160.738zm11.776 149.779h827.404v-138.82h-827.404v138.82z"/><path sketch:type="MSShapeGroup" d="M368.107 60.177c-2.785-3.173-6.259-5.626-10.424-7.366-4.164-1.74-8.641-2.608-13.432-2.608-4.735 0-9.192.868-13.37 2.608-4.176 1.739-7.673 4.193-10.487 7.366-2.311 2.615-4.169 5.78-5.577 9.495-1.406 3.713-2.11 7.351-2.11 10.914 0 3.56.689 7.169 2.068 10.827 1.378 3.658 3.265 6.838 5.66 9.536 2.757 3.143 6.228 5.591 10.404 7.345 4.178 1.754 8.649 2.629 13.412 2.629 4.791 0 9.269-.868 13.432-2.607 4.165-1.74 7.639-4.193 10.424-7.366 2.397-2.698 4.283-5.878 5.662-9.536 1.378-3.658 2.068-7.268 2.068-10.827 0-3.592-.689-7.215-2.068-10.874-1.379-3.66-3.264-6.838-5.662-9.536zm-11.531 30.757c-1.56 1.779-3.405 3.156-5.535 4.13-2.131.975-4.395 1.462-6.79 1.462-2.396 0-4.658-.487-6.79-1.462-2.13-.974-3.96-2.364-5.493-4.173-1.226-1.446-2.173-3.066-2.841-4.86-.668-1.796-1.003-3.61-1.003-5.445 0-1.866.335-3.696 1.003-5.49.667-1.794 1.615-3.414 2.841-4.861 1.56-1.807 3.398-3.198 5.515-4.173 2.117-.974 4.373-1.459 6.769-1.459 2.368 0 4.625.486 6.769 1.459 2.145.975 3.997 2.352 5.557 4.131 1.225 1.391 2.173 2.991 2.841 4.8.667 1.808 1.003 3.672 1.003 5.593-.002 3.893-1.282 7.342-3.846 10.348z"/><path sketch:type="MSShapeGroup" d="M205.882 51.914l-12.242 30.38-11.574-30.38h-14.622l-9.694 56.963h14.749l4.847-32.802 13.16 32.802h5.892l13.788-32.802 4.22 32.802h14.832l-8.606-56.963h-14.75"/><path sketch:type="MSShapeGroup" d="M97.684 80.792c-1.225-1.53-2.68-2.789-4.365-3.776-1.685-.988-3.962-1.899-6.832-2.734-3.064-.918-4.931-1.488-5.599-1.712-.669-.221-1.31-.513-1.923-.875-1.867-1.085-2.798-2.377-2.798-3.881 0-1.14.5-2.196 1.504-3.171 1.169-1.14 2.799-1.711 4.888-1.711 3.287 0 6.545 1.251 9.776 3.756l5.933-11.519c-2.869-1.502-5.842-2.649-8.92-3.443-3.077-.792-6.134-1.19-9.17-1.19-6.128 0-11.03 2.046-14.707 6.137-3.146 3.478-4.721 7.859-4.721 13.143 0 5.064 1.519 8.849 4.555 11.353 1.03.863 2.304 1.621 3.822 2.274 1.519.653 3.879 1.438 7.081 2.357 3.176.917 5.293 1.726 6.351 2.419 1.727 1.115 2.59 2.505 2.59 4.174 0 1.279-.488 2.463-1.462 3.548-1.17 1.364-3.091 2.044-5.766 2.044-4.261 0-8.621-2.002-13.076-6.009l-6.351 11.936c2.478 1.753 5.235 3.186 8.272 4.297 3.871 1.447 7.729 2.171 11.572 2.171 3.398 0 6.567-.508 9.504-1.523 2.939-1.014 5.412-2.455 7.416-4.318 3.538-3.282 5.307-8.124 5.307-14.523 0-1.947-.229-3.657-.689-5.133-.458-1.477-1.189-2.839-2.192-4.091"/><path sketch:type="MSShapeGroup" d="M300.196 51.914h-18.301l-18.089 23.494v-23.494h-14.833v56.963h14.833v-24.705l19.261 24.705h19.217l-24.732-30.006 22.644-26.957"/><path sketch:type="MSShapeGroup" d="M121.699 51.914h14.834v56.963h-14.834v-56.963z"/><path sketch:type="MSShapeGroup" d="M506.773 108.877h32.463v-12.395h-17.631v-10.138h16.67v-12.396h-16.67v-9.641h17.631v-12.393h-32.463v56.963"/><path sketch:type="MSShapeGroup" d="M683.093 88.513h12.158c-.251 1.612-.577 2.878-.983 3.796-.402.919-1.023 1.796-1.857 2.631-2.201 2.197-5.18 3.297-8.942 3.297-4.232 0-7.616-1.35-10.15-4.049-1.616-1.697-2.877-3.741-3.782-6.135-.905-2.393-1.358-4.869-1.358-7.428 0-2.615.468-5.141 1.4-7.576.933-2.434 2.235-4.485 3.907-6.155 2.534-2.557 5.724-3.838 9.566-3.838 3.147 0 5.863.946 8.147 2.839.892.749 1.644 1.564 2.257 2.439.612.877 1.253 2.067 1.922 3.569l14.078-5.802c-1.308-2.642-2.598-4.771-3.862-6.385-1.268-1.613-2.835-3.101-4.7-4.464-4.681-3.45-10.392-5.175-17.131-5.175-4.875 0-9.339.834-13.392 2.503s-7.443 4.049-10.172 7.136c-2.369 2.728-4.201 5.899-5.495 9.516-1.295 3.617-1.941 7.413-1.941 11.392 0 3.588.548 7.051 1.649 10.391 1.101 3.339 2.665 6.316 4.7 8.93 2.703 3.422 6.141 6.059 10.319 7.908 4.178 1.851 8.772 2.775 13.788 2.775 6.546 0 12.191-1.592 16.941-4.777 4.749-3.186 8.168-7.686 10.257-13.501 1.393-3.894 2.088-8.93 2.088-15.106h-29.412v11.269"/><path sketch:type="MSShapeGroup" d="M770.04 51.914v34.845l-27.281-34.845h-14.834v56.963h14.834v-34.886l27.281 34.886h14.83v-56.963h-14.83"/><path sketch:type="MSShapeGroup" d="M597.054 80.792c-1.227-1.53-2.682-2.789-4.367-3.776-1.685-.988-3.963-1.899-6.831-2.734-3.064-.918-4.93-1.488-5.598-1.712-.669-.221-1.311-.513-1.923-.875-1.865-1.085-2.799-2.377-2.799-3.881 0-1.14.501-2.196 1.504-3.171 1.17-1.14 2.801-1.711 4.889-1.711 3.286 0 6.546 1.251 9.776 3.756l5.933-11.519c-2.868-1.502-5.843-2.649-8.92-3.443-3.079-.792-6.134-1.19-9.171-1.19-6.128 0-11.029 2.046-14.705 6.137-3.149 3.478-4.724 7.859-4.724 13.143 0 5.064 1.519 8.849 4.557 11.353 1.028.863 2.303 1.621 3.82 2.274s3.879 1.438 7.083 2.357c3.176.917 5.292 1.726 6.351 2.419 1.728 1.115 2.591 2.505 2.591 4.174 0 1.279-.488 2.463-1.462 3.548-1.172 1.364-3.095 2.044-5.768 2.044-4.261 0-8.62-2.002-13.076-6.009l-6.351 11.936c2.479 1.753 5.236 3.186 8.272 4.297 3.872 1.447 7.728 2.171 11.573 2.171 3.396 0 6.567-.508 9.505-1.523 2.94-1.014 5.41-2.455 7.416-4.318 3.537-3.282 5.307-8.124 5.307-14.523 0-1.947-.23-3.657-.689-5.133-.46-1.477-1.19-2.839-2.193-4.091"/><path sketch:type="MSShapeGroup" d="M621.07 51.914h14.833v56.963h-14.833v-56.963z"/><path sketch:type="MSShapeGroup" d="M486.927 68.002c-1.963-3.994-4.657-7.338-8.084-10.038-2.451-1.975-5.14-3.478-8.063-4.508-2.925-1.027-5.935-1.542-9.025-1.542h-21.893v56.963h21.893c3.065 0 6.066-.516 9.005-1.545s5.633-2.531 8.084-4.506c3.427-2.699 6.121-6.045 8.084-10.037s2.946-8.131 2.946-12.414c-.001-4.258-.984-8.381-2.947-12.373zm-15.773 22.68c-1.504 2.004-3.3 3.471-5.39 4.403-2.088.932-4.652 1.397-7.688 1.397h-3.383v-32.175h3.383c3.066 0 5.628.469 7.688 1.398 2.062.932 3.857 2.401 5.39 4.405 2.201 2.947 3.302 6.37 3.302 10.265 0 3.923-1.101 7.357-3.302 10.307z"/></g></svg>