<svg width="88" height="89" viewBox="0 0 88 89" xmlns="http://www.w3.org/2000/svg" xmlns:sketch="http://www.bohemiancoding.com/sketch/ns"><title>smoke</title><g sketch:type="MSLayerGroup" fill="none"><path d="M44.085 88.48l43.888-43.883-43.888-43.885-43.887 43.885 43.887 43.883" fill="#D4D4D4" sketch:type="MSShapeGroup"/><path d="M7.72 44.597l36.365 36.362 36.366-36.362-36.366-36.364-36.365 36.364zm36.365 39.19l-39.193-39.19 39.193-39.192 39.194 39.192-39.194 39.19z" fill="#fff" sketch:type="MSShapeGroup"/><path d="M45.11 70.648s-5.173-6.85 1.176-15.541c5.326-7.28 13.68-15.682 9.895-23.792 0 0-1.898-6.464-7.707-9.382-5.811-2.921-10.296-.053-12.04 2.236-1.001 1.308-2.005 2.672-1.223 6.494 0 0-3.087-6.512 4.138-9.955 7.227-3.446 14.486 3.56 15.469 4.599.981 1.046 6.518 7.819 3.828 16.603-1.111 5.916-8.282 13.148-9.224 14.39 0 0-7.819 8.869-4.312 14.348zm2.541-18.37s13.413-15.298 3.309-26.962c0 0-5.448-6.62-12.889-1.626 0 0-5.351 3.588-1.285 9.075 0 0 2.727 3.854 7.959 1.197 0 0 3.319-2.268 1.565-4.015 0 0-3.595-.298-2.697-2.112 0 0 1.261-2.279 3.343 1.99 0 0 1.415 3.027-2.738 5.271 0 0 1.613-.026 4.13-1.793 0 0 5.237 6.105-.697 18.975zm-4.589 5.769s-2.252-3.318.937-5.655c3.189-2.342 4.781-4.543 3.26-7.555 0 0 1.11 2.92-3.274 4.818 0 0-6.589 1.533-.923 8.392zm19.013-15.113s.916 5.031-5.39 9.429c-6.297 4.41-10.183 8.3-10.118 12.956 0 0 .461-4.581 8.195-8.477 0 0 10.658-3.681 7.313-13.908zm-20.013 28.464s2.572-5.3-2.897-12.307c-5.469-7.01-9.119-12.204-7.455-15.967 1.959-4.447 4.852-5.764 7.943-5.372 2.139.268 5.194.971 5.94 4.573 0 0 .085-5.135-7.383-5.302 0 0-7.311.456-8.154 7.979 0 0-.469 5.851 6.549 13.851 8.112 9.247 5.231 11.248 5.457 12.545zm-3.252-13.303s-5.108-9.201-2.229-12.881c0 0 1.092.745 2.381 1.059 0 0-3.404-2.318-1.449-4.368 1.168-.903 1.551-.107 1.554.062 0 0 .266.686-1.023.916l-.741.077s-.173 3.758 5.036 3.318c0 0 3.549-.971 2.891-3.749-.665-2.781-3.603-3.931-4.876-4.165 0 0-4.818-1.218-6.9 3.095 0 0-2.132 4.063-.019 8.458 1.275 2.652 3.865 5.723 5.375 8.178z" fill="#646464" sketch:type="MSShapeGroup"/></g></svg>