<svg width="88" height="89" viewBox="0 0 88 89" xmlns="http://www.w3.org/2000/svg" xmlns:sketch="http://www.bohemiancoding.com/sketch/ns"><title>vehicle</title><g sketch:type="MSLayerGroup" fill="none"><path d="M44.085 88.48l43.888-43.883-43.888-43.885-43.887 43.885 43.887 43.883" fill="#D4D4D4" sketch:type="MSShapeGroup"/><path d="M7.72 44.597l36.365 36.362 36.366-36.362-36.366-36.364-36.365 36.364zm36.365 39.19l-39.193-39.19 39.193-39.192 39.194 39.192-39.194 39.19z" fill="#fff" sketch:type="MSShapeGroup"/><path d="M58.581 40.134l-2.923-7.465c-.55-1.422-1.743-2.637-3.99-2.637h-15.34c-2.247 0-3.439 1.215-3.99 2.637l-2.923 7.465c-1.158.147-3.209 1.494-3.209 4.044v9.498h2.843v3.033c0 3.736 5.341 3.692 5.341 0v-3.033h19.215000000000003v3.033c0 3.692 5.341 3.736 5.341 0v-3.033h2.843v-9.498c0-2.549-2.053-3.897-3.211-4.044zm-26.776 7.735c-1.363 0-2.467-1.127-2.467-2.518 0-1.39 1.105-2.518 2.467-2.518 1.363 0 2.467 1.127 2.467 2.518 0 1.39-1.105 2.518-2.467 2.518zm12.196-7.911h-11.559l2.201-5.776c.275-.825.688-1.422 1.651-1.431h15.408c.963.009 1.376.605 1.651 1.431l2.201 5.776h-11.553zm12.189 7.911c-1.363 0-2.467-1.127-2.467-2.518 0-1.39 1.105-2.518 2.467-2.518 1.363 0 2.467 1.127 2.467 2.518 0 1.39-1.105 2.518-2.467 2.518z" fill="#646464" sketch:type="MSShapeGroup"/></g></svg>