<svg width="89" height="88" viewBox="0 0 89 88" xmlns="http://www.w3.org/2000/svg" xmlns:sketch="http://www.bohemiancoding.com/sketch/ns"><title>water</title><g sketch:type="MSLayerGroup" fill="none"><path d="M44.437.244l43.882 43.885-43.882 43.885-43.883-43.885 43.883-43.885z" fill="#D4D4D4" sketch:type="MSShapeGroup"/><path d="M8.073 44.131l36.366 36.361 36.367-36.361-36.367-36.365-36.366 36.365zm36.366 39.189l-39.194-39.189 39.194-39.193 39.195 39.193-39.195 39.189z" fill="#fff" sketch:type="MSShapeGroup"/><path d="M49.03 57.553c0 .265-.408 5.511-5.064 5.485-4.659-.03-5.229-5.015-5.229-5.015-.066-.833-.336-2.762 2.034-5.659 2.492-3.05 3.142-5.157 3.142-5.157.405 1.756 2.759 4.718 2.759 4.718 2.575 2.932 2.358 5.366 2.358 5.628zm-.236-7.694s-3.985-5.006-4.671-7.978c0 0-1.101 3.564-5.309 8.723-4.006 4.894-3.553 8.156-3.438 9.565 0 0 .963 8.425 8.837 8.477 7.874.047 8.563-8.823 8.563-9.27 0-.446.364-4.56-3.982-9.517zm-13.881-10.503c0 .188-.31 3.899-3.881 3.881-3.562-.024-3.998-3.55-3.998-3.55-.055-.592-.258-1.95 1.553-4.001 1.91-2.155 2.407-3.649 2.407-3.649.311 1.244 2.114 3.338 2.114 3.338 1.969 2.073 1.805 3.795 1.805 3.981zm.277-4.249s-3.822-4.438-4.48-7.077c0 0-1.052 3.158-5.098 7.735-3.843 4.342-3.41 7.23-3.297 8.483 0 0 .924 7.472 8.481 7.515 7.56.042 8.219-7.826 8.219-8.218 0-.397.351-4.044-3.825-8.438zm27.489 6.628c.004.2-.243 4.185-4.065 4.243-3.824.057-4.371-3.705-4.371-3.705-.066-.634-.318-2.09 1.572-4.323 2.002-2.357 2.497-3.964 2.497-3.964.363 1.323 2.339 3.525 2.339 3.525 2.163 2.176 2.021 4.024 2.028 4.224zm.52-7.126s-4.195-4.666-4.963-7.476c0 0-1.051 3.412-5.284 8.403-4.012 4.737-3.484 7.821-3.335 9.16 0 0 1.16 7.98 9.259 7.855 8.1-.127 8.623-8.567 8.611-8.991-.002-.424.285-4.34-4.288-8.951zm-15.85-6.933c0 .161-.267 3.347-3.332 3.332-3.059-.021-3.433-3.048-3.433-3.048-.048-.508-.222-1.674 1.333-3.436 1.64-1.85 2.066-3.134 2.066-3.134.268 1.069 1.817 2.868 1.817 2.868 1.69 1.779 1.549 3.258 1.549 3.418zm.238-3.649s-3.281-3.811-3.848-6.077c0 0-.902 2.712-4.377 6.642-3.3 3.728-2.927 6.208-2.831 7.284 0 0 .794 6.417 7.282 6.454 6.493.036 7.057-6.721 7.057-7.058 0-.34.303-3.472-3.283-7.245z" fill="#646464" sketch:type="MSShapeGroup"/></g></svg>