<svg width="88" height="89" viewBox="0 0 88 89" xmlns="http://www.w3.org/2000/svg" xmlns:sketch="http://www.bohemiancoding.com/sketch/ns"><title>wind</title><g sketch:type="MSLayerGroup" fill="none"><path d="M44.009 88.335l43.887-43.886-43.887-43.886-43.883 43.886 43.883 43.886" fill="#D4D4D4" sketch:type="MSShapeGroup"/><path d="M7.646 44.45l36.365 36.362 36.365-36.362-36.365-36.363-36.365 36.363zm36.365 39.19l-39.194-39.19 39.194-39.192 39.193 39.192-39.193 39.19z" fill="#fff" sketch:type="MSShapeGroup"/><path d="M22.822 44.262s6.45-4.841 14.509 1.121c6.743 4.999 15.022 12.215 22.637 8.68 0 0 5.541-1.148 8.328-6.594 2.785-5.447.154-9.65-1.967-11.293-1.213-.937-2.475-1.884-6.051-1.15 0 0 6.11-2.888 9.257 3.891 3.142 6.782-3.476 13.579-4.459 14.496-.985.92-6.663 5.554-14.841 3.021-5.513-1.051-12.486-7.68-13.635-8.563 0 0-8.622-6.892-13.778-3.609zm17.939 2.218s12.968 12.948 23.91 3.475c0 0 5.994-4.716 1.701-11.43 0 0-3.088-4.832-8.045-1.326 0 0-3.484 2.352-1.223 7.054 0 0 1.952 3.003 3.542 1.472 0 0 .33-3.19 1.929-2.353 0 0 2.002 1.164-1.836 2.933 0 0-2.72 1.196-4.635-2.541 0 0-.009 1.437 1.514 3.708 0 0-5.527 4.536-16.857-.992zm-22.959-.77s10.469-.086 12.311 4.173c0 0-1.166.605-2.053 1.581 0 0 3.638-1.873 4.503.814.233 1.446-.644 1.398-.795 1.323 0 0-.722-.093-.308-1.326l.277-.687s-3.197-1.939-5.288 2.823c0 0-.84 3.562 1.904 4.308 2.744.743 5.144-1.278 5.957-2.276 0 0 3.35-3.634.573-7.509 0 0-2.536-3.787-7.38-4.029-2.923-.144-6.838.654-9.701.805zm27.17-5.065s-.742-.809-1.154-1.83c0 0 2.309 2.516 3.76.665.604-1.066-.099-1.284-.237-1.269 0 0-.595-.13-.623.954l.019.612s-3.071.6-3.324-3.735c0 0 .367-3.034 2.731-2.824 2.364.213 3.658 2.484 4.003 3.503 0 0 1.579 3.819-1.719 6.045 0 0-3.075 2.239-6.939 1.024 0 0-10.022-5.126-20.199-.512 0 0 4.371-3.873 12.871-3.456 8.951.439 8.723 2.262 10.811.823z" fill="#646464" sketch:type="MSShapeGroup"/></g></svg>